<?xml version="1.0" encoding="UTF-8"?>
<!-- Created with Inkscape (http://www.inkscape.org/) -->
<svg width="6.25in" height="1.25in" version="1.1" viewBox="0 0 158.75 31.75" xmlns="http://www.w3.org/2000/svg">
 <path d="m27.468 7.7328h-9.339v5.209h8.0243v2.1828h-8.0243v8.8925h-2.4557v-18.467h11.795zm14.101 16.284h-2.3316v-1.5379q-1.1782 0.93018-2.2572 1.4263-1.079 0.49609-2.3812 0.49609-2.1828 0-3.3982-1.3271-1.2154-1.3395-1.2154-3.9191v-8.9917h2.3316v7.8879q0 1.0542 0.09922 1.8107 0.09922 0.74414 0.42168 1.2774 0.33486 0.5457 0.86816 0.79375 0.5333 0.24805 1.5503 0.24805 0.90537 0 1.972-0.47129 1.079-0.47129 2.0092-1.203v-10.344h2.3316zm6.9453 0h-2.3316v-19.298h2.3316zm6.9701 0h-2.3316v-19.298h2.3316z" fill="none" stroke="#000" stroke-width=".26458" aria-label="Full"/>
</svg>
