<svg xmlns="http://www.w3.org/2000/svg" version="1.1" xmlns:xlink="http://www.w3.org/1999/xlink" width="160" height="160"><svg width="160" height="160" viewBox="0 0 160 160" version="1.1" id="SvgjsSvg1061" xmlns="http://www.w3.org/2000/svg" xmlns:svg="http://www.w3.org/2000/svg">
  <defs id="SvgjsDefs1060"></defs>
  <g id="SvgjsG1059">
    <rect style="fill:#1d2731;stroke:none;stroke-width:1.13386;fill-opacity:1" id="SvgjsRect1058" width="160" height="160" x="0" y="0" rx="25" ry="25"></rect>
    <path style="font-weight:bold;font-size:140px;font-family:'Marker Felt';-inkscape-font-specification:'Marker Felt Bold';letter-spacing:0px;word-spacing:0px;fill:#0b3c5d;stroke-width:1.61644" d="m 113.23256,86.807916 c 0.18667,1.4 0.28,2.8 0.28,4.2 0,7.746669 -3.31333,16.100004 -9.94,25.060004 -5.320002,7.18667 -11.853336,13.62667 -19.600003,19.32 -7.093333,5.13333 -11.9,7.51333 -14.42,7.14 -2.8,-0.37333 -7.746667,-2.42667 -14.84,-6.16 -7.093333,-3.82667 -10.92,-6.44 -11.48,-7.84 -0.186667,-0.37333 -0.28,-0.79333 -0.28,-1.26 0,-0.56 0.14,-1.26 0.42,-2.1 0.373333,-0.93333 0.56,-1.63333 0.56,-2.1 V 32.347916 c 0,-1.493333 2.053333,-2.24 6.16,-2.24 1.866667,0 3.5,0.186667 4.9,0.56 4.386667,-2.8 9.893333,-5.273333 16.52,-7.42 6.72,-2.24 12.46,-3.36 17.22,-3.36 2.8,0 4.946667,0.42 6.44,1.26 1.586667,0.746667 3.033333,2.1 4.34,4.06 1.680003,2.706667 2.846673,4.386667 3.500003,5.04 0.18667,0.186667 1.72667,1.446667 4.62,3.78 1.68,1.4 2.75333,2.893333 3.22,4.48 0.37333,1.12 0.56,2.333333 0.56,3.64 0,7.373333 -4.9,15.4 -14.700003,24.08 9.986673,7.56 15.493333,14.42 16.520003,20.58 z m -24.500003,-45.5 c -0.186667,-0.373333 -0.7,-0.56 -1.54,-0.56 -2.146667,0 -5.506667,1.12 -10.08,3.36 -4.573333,2.24 -7.653333,4.386667 -9.24,6.44 v 14.56 c 5.973333,-4.76 11.106667,-9.613333 15.4,-14.56 4.386667,-4.946667 6.206667,-8.026667 5.46,-9.24 z m 5.04,41.44 c -2.426667,0.09333 -6.533333,1.26 -12.32,3.5 -6.253333,2.52 -10.78,4.993333 -13.58,7.42 v 26.040004 c 6.066667,-1.68 12.04,-6.81333 17.92,-15.4 5.88,-8.586669 8.54,-15.773337 7.98,-21.560004 z" id="SvgjsPath1057" aria-label="B"></path>
    <path style="font-weight:bold;font-size:140px;font-family:'Marker Felt';-inkscape-font-specification:'Marker Felt Bold';letter-spacing:0px;word-spacing:0px;fill:#eac67a;stroke-width:1.61644" d="m 117,83.581018 c 0.18667,1.4 0.28,2.8 0.28,4.2 0,7.746667 -3.31333,16.100002 -9.94,25.060002 -5.32,7.18667 -11.853332,13.62667 -19.599999,19.32 -7.093333,5.13333 -11.9,7.51333 -14.42,7.14 -2.8,-0.37333 -7.746667,-2.42667 -14.84,-6.16 -7.093333,-3.82667 -10.92,-6.44 -11.48,-7.84 -0.186667,-0.37333 -0.28,-0.79333 -0.28,-1.26 0,-0.56 0.14,-1.26 0.42,-2.1 0.373333,-0.93333 0.56,-1.63333 0.56,-2.1 V 29.121018 c 0,-1.493333 2.053333,-2.24 6.16,-2.24 1.866667,0 3.5,0.186667 4.9,0.56 4.386667,-2.8 9.893333,-5.273333 16.52,-7.42 6.72,-2.24 12.46,-3.36 17.22,-3.36 2.8,0 4.946667,0.42 6.44,1.26 1.586669,0.746667 3.033329,2.1 4.339999,4.06 1.68,2.706667 2.84667,4.386667 3.5,5.04 0.18667,0.186667 1.72667,1.446667 4.62,3.78 1.68,1.4 2.75333,2.893333 3.22,4.48 0.37333,1.12 0.56,2.333333 0.56,3.64 0,7.373333 -4.9,15.4 -14.7,24.08 9.98667,7.56 15.49333,14.42 16.52,20.58 z m -24.499999,-45.5 c -0.186667,-0.373333 -0.7,-0.56 -1.54,-0.56 -2.146667,0 -5.506667,1.12 -10.08,3.36 -4.573333,2.24 -7.653333,4.386667 -9.24,6.44 v 14.56 c 5.973333,-4.76 11.106667,-9.613333 15.4,-14.56 4.386667,-4.946667 6.206667,-8.026667 5.46,-9.24 z m 5.04,41.44 c -2.426667,0.09333 -6.533333,1.26 -12.32,3.5 -6.253333,2.52 -10.78,4.993333 -13.58,7.42 v 26.040002 c 6.066667,-1.68 12.04,-6.81333 17.92,-15.4 5.88,-8.586668 8.54,-15.773335 7.98,-21.560002 z" id="SvgjsPath1056" aria-label="B"></path>
  </g>
</svg><style>@media (prefers-color-scheme: light) { :root { filter: none; } }
@media (prefers-color-scheme: dark) { :root { filter: none; } }
</style></svg>