<?xml version="1.0" encoding="UTF-8" standalone="no"?>

<svg viewBox="0 0 600 400" xmlns="http://www.w3.org/2000/svg">

<path d="m 112.97184,47.135975
h 31.65868
v 4.480002
h -26.73068
v 18.816009
h 24.86402
v 4.480002
H 117.89984
V 100
h -4.928
z

m 69.44002,43.157354
q 0,0.970667 0.0747,2.389334 0.0747,1.344001 0.0747,2.762668 0.0747,1.418668 0.14933,2.688001 0.0747,1.194668 0.0747,1.866668
h -4.48
q -0.0747,-1.941334 -0.14934,-3.733335 0,-1.792001 -0.14933,-2.314668
h -0.224
q -1.344,2.837335 -4.48,4.928002 -3.136,2.016001 -7.31734,2.016001 -4.032,0 -6.64533,-1.269334 -2.53867,-1.269333 -4.03201,-3.285334 -1.41866,-2.090668 -1.94133,-4.778669 -0.52267,-2.688002 -0.52267,-5.525336
V 65.503984
h 4.48
v 20.309343
q 0,2.090667 0.37334,4.106668 0.37333,1.941334 1.26933,3.509335 0.97067,1.568001 2.61334,2.538668 1.71733,0.896001 4.40533,0.896001 2.464,0 4.62934,-0.821334 2.24,-0.896001 3.808,-2.613335 1.64267,-1.792001 2.53867,-4.405335 0.97066,-2.688002 0.97066,-6.272003
V 65.503984
h 4.48001
z

m 13.06665,-46.741356
h 4.48
V 100
h -4.48
z

m 17.99462,0
h 4.48
V 100
h -4.48
z" fill="none" stroke="black" stroke-dasharray="219">
    <animate attributeName="stroke-dashoffset" begin="0" from="219" dur="3s" to="0" repeatCount="indefinite">
      
    </animate>

</path>
<path d="M20 375 h300" stroke="black" stroke-dasharray="300">
  <animate attributeName="stroke-dashoffset" begin="0" from="300" dur="2s" to="0" repeatCount="indefinite">
    
  </animate>
</path>
  <path d="M20 377 h300" stroke="black"/ >
</svg>