<?xml version="1.0" encoding="UTF-8" standalone="no"?>
<!-- Created with Inkscape (http://www.inkscape.org/) -->

<svg
   width="640"
   height="480"
   viewBox="0 0 169.33334 127"
   version="1.1"
   id="svg1377"
   inkscape:version="1.1 (c68e22c387, 2021-05-23)"
   sodipodi:docname="btfly_1.svg"
   xmlns:inkscape="http://www.inkscape.org/namespaces/inkscape"
   xmlns:sodipodi="http://sodipodi.sourceforge.net/DTD/sodipodi-0.dtd"
   xmlns:xlink="http://www.w3.org/1999/xlink"
   xmlns="http://www.w3.org/2000/svg"
   xmlns:svg="http://www.w3.org/2000/svg" preserveAspectRatio="">
  <sodipodi:namedview
     id="namedview1379"
     pagecolor="#ffffff"
     bordercolor="#666666"
     borderopacity="1.0"
     inkscape:pageshadow="2"
     inkscape:pageopacity="0.0"
     inkscape:pagecheckerboard="0"
     inkscape:document-units="mm"
     showgrid="false"
     inkscape:zoom="0.67081229"
     inkscape:cx="299.63673"
     inkscape:cy="330.19669"
     inkscape:window-width="1920"
     inkscape:window-height="1017"
     inkscape:window-x="-8"
     inkscape:window-y="-8"
     inkscape:window-maximized="1"
     inkscape:current-layer="svg1377"
     units="px"
     width="640px" />
  <defs
     id="defs1374">
    <inkscape:path-effect
       simplifyJustCoalesce="false"
       simplifyindividualpaths="false"
       simplify_just_coalesce="false"
       simplify_individual_paths="false"
       helper_size="0"
       smooth_angles="360"
       threshold="0.00449747"
       steps="1"
       is_visible="true"
       id="path-effect2246"
       effect="simplify"
       lpeversion="0" />
    <inkscape:path-effect
       effect="simplify"
       id="path-effect2242"
       is_visible="true"
       steps="1"
       threshold="0.00449747"
       smooth_angles="360"
       helper_size="0"
       simplify_individual_paths="false"
       simplify_just_coalesce="false"
       simplifyindividualpaths="false"
       simplifyJustCoalesce="false"
       lpeversion="0" />
    <inkscape:path-effect
       effect="simplify"
       id="path-effect2238"
       is_visible="true"
       steps="1"
       threshold="0.00449747"
       smooth_angles="360"
       helper_size="0"
       simplify_individual_paths="false"
       simplify_just_coalesce="false"
       simplifyindividualpaths="false"
       simplifyJustCoalesce="false"
       lpeversion="0" />
    <inkscape:path-effect
       effect="taper_stroke"
       id="path-effect1278-8"
       is_visible="true"
       stroke_width="0.66"
       attach_start="1.0542319"
       end_offset="0.84656533"
       smoothing="0.5"
       jointype="extrapolated"
       miter_limit="100"
       lpeversion="0"
       start_smoothing="0.5"
       end_smoothing="0.5"
       start_shape="center"
       end_shape="center" />
    <inkscape:path-effect
       effect="taper_stroke"
       id="path-effect1282-5"
       is_visible="true"
       stroke_width="0.56"
       attach_start="0.54594308"
       end_offset="0.36731627"
       smoothing="0.5"
       jointype="extrapolated"
       miter_limit="100"
       lpeversion="0"
       start_smoothing="0.5"
       end_smoothing="0.5"
       start_shape="center"
       end_shape="center" />
    <inkscape:path-effect
       simplifyJustCoalesce="false"
       simplifyindividualpaths="false"
       simplify_just_coalesce="false"
       simplify_individual_paths="false"
       helper_size="0"
       smooth_angles="360"
       threshold="0.00449747"
       steps="1"
       is_visible="true"
       id="path-effect1194"
       effect="simplify"
       lpeversion="0" />
    <inkscape:path-effect
       simplifyJustCoalesce="false"
       simplifyindividualpaths="false"
       simplify_just_coalesce="false"
       simplify_individual_paths="false"
       helper_size="0"
       smooth_angles="360"
       threshold="0.00449747"
       steps="1"
       is_visible="true"
       id="path-effect1191"
       effect="simplify"
       lpeversion="0" />
    <inkscape:path-effect
       effect="simplify"
       id="path-effect1188"
       is_visible="true"
       steps="1"
       threshold="0.00449747"
       smooth_angles="360"
       helper_size="0"
       simplify_individual_paths="false"
       simplify_just_coalesce="false"
       simplifyindividualpaths="false"
       simplifyJustCoalesce="false"
       lpeversion="0" />
    <inkscape:path-effect
       effect="simplify"
       id="path-effect1096"
       is_visible="true"
       steps="1"
       threshold="0.00449747"
       smooth_angles="360"
       helper_size="0"
       simplify_individual_paths="false"
       simplify_just_coalesce="false"
       simplifyindividualpaths="false"
       simplifyJustCoalesce="false"
       lpeversion="0" />
    <inkscape:path-effect
       effect="simplify"
       id="path-effect1122"
       is_visible="true"
       steps="1"
       threshold="0.00449747"
       smooth_angles="360"
       helper_size="0"
       simplify_individual_paths="false"
       simplify_just_coalesce="false"
       simplifyindividualpaths="false"
       simplifyJustCoalesce="false"
       lpeversion="0" />
    <inkscape:path-effect
       simplifyJustCoalesce="false"
       simplifyindividualpaths="false"
       simplify_just_coalesce="false"
       simplify_individual_paths="false"
       helper_size="0"
       smooth_angles="360"
       threshold="0.00449747"
       steps="1"
       is_visible="true"
       id="path-effect1118"
       effect="simplify"
       lpeversion="0" />
    <inkscape:path-effect
       effect="simplify"
       id="path-effect1141"
       is_visible="true"
       steps="1"
       threshold="0.00449747"
       smooth_angles="360"
       helper_size="0"
       simplify_individual_paths="false"
       simplify_just_coalesce="false"
       simplifyindividualpaths="false"
       simplifyJustCoalesce="false"
       lpeversion="0" />
    <inkscape:path-effect
       effect="simplify"
       id="path-effect1143"
       is_visible="true"
       steps="1"
       threshold="0.00449747"
       smooth_angles="360"
       helper_size="0"
       simplify_individual_paths="false"
       simplify_just_coalesce="false"
       simplifyindividualpaths="false"
       simplifyJustCoalesce="false"
       lpeversion="0" />
    <inkscape:path-effect
       simplifyJustCoalesce="false"
       simplifyindividualpaths="false"
       simplify_just_coalesce="false"
       simplify_individual_paths="false"
       helper_size="0"
       smooth_angles="360"
       threshold="0.00449747"
       steps="1"
       is_visible="true"
       id="path-effect1145"
       effect="simplify"
       lpeversion="0" />
    <linearGradient
       inkscape:collect="always"
       xlink:href="#linearGradient1024"
       id="linearGradient1162"
       gradientUnits="userSpaceOnUse"
       gradientTransform="matrix(0.9838174,0.2321286,-0.22283179,1.0248634,17.750959,-155.52579)"
       x1="125.38636"
       y1="210.76987"
       x2="116.52033"
       y2="194.31029" />
    <linearGradient
       inkscape:collect="always"
       id="linearGradient1024">
      <stop
         style="stop-color:#fd5116;stop-opacity:1"
         offset="0"
         id="stop1020" />
      <stop
         style="stop-color:#e4ef15;stop-opacity:1"
         offset="1"
         id="stop1022" />
    </linearGradient>
    <linearGradient
       inkscape:collect="always"
       xlink:href="#linearGradient1024"
       id="linearGradient1138"
       gradientUnits="userSpaceOnUse"
       gradientTransform="matrix(-0.93647145,0.14086074,0.14086074,0.93647145,166.22295,-103.06587)"
       x1="97.49189"
       y1="143.3746"
       x2="111.36194"
       y2="179.08353" />
    <linearGradient
       inkscape:collect="always"
       xlink:href="#linearGradient1024"
       id="linearGradient1566"
       gradientUnits="userSpaceOnUse"
       gradientTransform="matrix(-0.9838174,0.2321286,0.22283179,1.0248634,152.17173,-155.52579)"
       x1="125.38636"
       y1="210.76987"
       x2="116.52033"
       y2="194.31029" />
    <linearGradient
       inkscape:collect="always"
       xlink:href="#linearGradient1024"
       id="linearGradient1568"
       gradientUnits="userSpaceOnUse"
       gradientTransform="matrix(0.93647145,0.14086074,-0.14086074,0.93647145,3.6997407,-103.06587)"
       x1="97.49189"
       y1="143.3746"
       x2="111.36194"
       y2="179.08353" />
  </defs>
  <path
     sodipodi:nodetypes="zccz"
     inkscape:connector-curvature="0"
     id="path1148"
     d="M 88.018229,71.245874 C 93.092217,56.835253 144.93451,70.659406 146.55365,82.118577 145.12825,96.22684 136.87822,114.7932 121.43508,117.81755 95.228567,116.97534 82.944242,85.656496 88.018229,71.245874 Z"
     style="fill:#000000;fill-opacity:1;stroke:none;stroke-width:0.26676;stroke-linecap:butt;stroke-linejoin:miter;stroke-miterlimit:4;stroke-dasharray:none;stroke-opacity:1" />
  <path
     style="fill:url(#linearGradient1162);fill-opacity:1;stroke:none;stroke-width:0.214161;stroke-linecap:butt;stroke-linejoin:miter;stroke-miterlimit:4;stroke-dasharray:none;stroke-opacity:1"
     d="m 88.015293,69.879521 c 3.991116,-11.808056 44.603937,1.646039 45.877517,11.035688 -0.23877,2.461933 -2.43946,7.763039 -2.43946,7.763039 -0.94078,-3.816654 -7.55591,-7.535934 -7.70341,-7.243488 -0.12132,0.240443 5.9341,2.539866 6.89835,8.837922 0.94126,6.148049 -7.15925,10.922498 -8.73913,13.389358 -0.0462,-4.059612 -1.79869,-7.972243 -3.49541,-9.514571 2.11156,2.998322 3.14219,6.875571 2.53141,10.696461 -2.90672,2.65373 -4.46585,2.75189 -6.64478,3.1964 -2.41247,-0.0808 -6.20773,-1.28054 -7.47441,-1.55176 -0.11542,-4.33083 -0.34321,-7.424237 -2.62611,-13.481451 2.09221,8.550621 1.78121,10.150301 1.23184,13.020661 C 99.014495,100.91777 84.64922,79.838326 88.015293,69.879521 Z"
     id="path1150"
     inkscape:connector-curvature="0"
     sodipodi:nodetypes="sccsscccccccs" />
  <path
     sodipodi:nodetypes="cccc"
     inkscape:connector-curvature="0"
     id="path1118"
     d="M 88.660727,66.822925 C 98.679126,37.965454 115.39363,20.188029 155.31721,12.190933 c 13.9457,11.64706 -17.69723,35.321255 -7.44347,52.894209 -7.3566,16.217489 -48.879944,9.830843 -59.213013,1.737783 z"
     style="fill:#000000;fill-opacity:1;stroke:#20161f;stroke-width:0.384729;stroke-linecap:butt;stroke-linejoin:miter;stroke-miterlimit:4;stroke-dasharray:none;stroke-opacity:1" />
  <path
     style="fill:url(#linearGradient1138);fill-opacity:1;stroke:none;stroke-width:0.284102;stroke-linecap:butt;stroke-linejoin:miter;stroke-miterlimit:4;stroke-dasharray:none;stroke-opacity:1"
     d="m 89.905903,66.775244 c 2.977919,-9.785663 16.343627,-31.754546 45.825067,-37.659959 3.67572,3.069844 5.17081,8.545707 1.34985,11.127201 -1.92598,1.301206 -4.72922,0.222874 -11.52286,4.015162 5.36272,-2.873914 10.29939,-2.416715 10.42865,-1.692949 0.56383,3.15719 -0.51304,8.151706 -2.42343,9.264163 -2.32301,0.46987 -8.71869,0.787605 -14.83593,4.982525 8.19277,-4.45964 14.21375,-4.327229 14.36644,-3.469039 -0.52526,2.205563 -4.27384,7.947325 -1.99549,11.851993 -9.52448,8.835793 -33.561886,7.557197 -41.192297,1.580903 z"
     id="path1120"
     inkscape:connector-curvature="0"
     sodipodi:nodetypes="ccscsccccc" />
  <path
     style="color:#000000;font-style:normal;font-variant:normal;font-weight:normal;font-stretch:normal;font-size:medium;line-height:normal;font-family:sans-serif;font-variant-ligatures:normal;font-variant-position:normal;font-variant-caps:normal;font-variant-numeric:normal;font-variant-alternates:normal;font-feature-settings:normal;text-indent:0;text-align:start;text-decoration:none;text-decoration-line:none;text-decoration-style:solid;text-decoration-color:#000000;letter-spacing:normal;word-spacing:normal;text-transform:none;writing-mode:lr-tb;direction:ltr;text-orientation:mixed;dominant-baseline:auto;baseline-shift:baseline;text-anchor:start;white-space:normal;shape-padding:0;clip-rule:nonzero;display:inline;overflow:visible;visibility:visible;isolation:auto;mix-blend-mode:normal;color-interpolation:sRGB;color-interpolation-filters:linearRGB;solid-color:#000000;solid-opacity:1;vector-effect:none;fill:#fd5116;fill-opacity:1;fill-rule:nonzero;stroke:none;stroke-width:0.479869;stroke-linecap:butt;stroke-linejoin:miter;stroke-miterlimit:4;stroke-dasharray:none;stroke-dashoffset:0;stroke-opacity:1;color-rendering:auto;image-rendering:auto;shape-rendering:auto;text-rendering:auto;enable-background:accumulate"
     d="m 124.30478,34.646346 c 4.54977,-1.243932 18.18582,-3.122552 25.62248,-3.192945 -11.80345,-0.359824 -20.93585,1.52826 -25.62248,3.192945 z"
     id="path1112"
     inkscape:connector-curvature="0"
     sodipodi:nodetypes="ccc" />
  <path
     style="color:#000000;font-style:normal;font-variant:normal;font-weight:normal;font-stretch:normal;font-size:medium;line-height:normal;font-family:sans-serif;font-variant-ligatures:normal;font-variant-position:normal;font-variant-caps:normal;font-variant-numeric:normal;font-variant-alternates:normal;font-feature-settings:normal;text-indent:0;text-align:start;text-decoration:none;text-decoration-line:none;text-decoration-style:solid;text-decoration-color:#000000;letter-spacing:normal;word-spacing:normal;text-transform:none;writing-mode:lr-tb;direction:ltr;text-orientation:mixed;dominant-baseline:auto;baseline-shift:baseline;text-anchor:start;white-space:normal;shape-padding:0;clip-rule:nonzero;display:inline;overflow:visible;visibility:visible;isolation:auto;mix-blend-mode:normal;color-interpolation:sRGB;color-interpolation-filters:linearRGB;solid-color:#000000;solid-opacity:1;vector-effect:none;fill:#fd5116;fill-opacity:1;fill-rule:nonzero;stroke:none;stroke-width:1.28243;stroke-linecap:butt;stroke-linejoin:miter;stroke-miterlimit:4;stroke-dasharray:none;stroke-dashoffset:0;stroke-opacity:1;color-rendering:auto;image-rendering:auto;shape-rendering:auto;text-rendering:auto;enable-background:accumulate"
     d="M 152.10943,17.871192 C 109.24932,25.153025 99.528808,49.588316 89.685974,64.489224 108.87329,25.566006 127.42595,22.931124 152.10943,17.871192 Z"
     id="path1114"
     inkscape:connector-curvature="0"
     sodipodi:nodetypes="ccc" />
  <path
     sodipodi:nodetypes="ccc"
     inkscape:connector-curvature="0"
     id="path1116"
     d="m 96.25734,53.251054 c 18.44046,-23.171585 36.07202,-25.681096 43.98139,-27.76184 -16.72108,3.422602 -29.6279,7.70038 -43.98139,27.76184 z"
     style="color:#000000;font-style:normal;font-variant:normal;font-weight:normal;font-stretch:normal;font-size:medium;line-height:normal;font-family:sans-serif;font-variant-ligatures:normal;font-variant-position:normal;font-variant-caps:normal;font-variant-numeric:normal;font-variant-alternates:normal;font-feature-settings:normal;text-indent:0;text-align:start;text-decoration:none;text-decoration-line:none;text-decoration-style:solid;text-decoration-color:#000000;letter-spacing:normal;word-spacing:normal;text-transform:none;writing-mode:lr-tb;direction:ltr;text-orientation:mixed;dominant-baseline:auto;baseline-shift:baseline;text-anchor:start;white-space:normal;shape-padding:0;clip-rule:nonzero;display:inline;overflow:visible;visibility:visible;isolation:auto;mix-blend-mode:normal;color-interpolation:sRGB;color-interpolation-filters:linearRGB;solid-color:#000000;solid-opacity:1;vector-effect:none;fill:#fd5116;fill-opacity:1;fill-rule:nonzero;stroke:none;stroke-width:0.766528;stroke-linecap:butt;stroke-linejoin:miter;stroke-miterlimit:4;stroke-dasharray:none;stroke-dashoffset:0;stroke-opacity:1;color-rendering:auto;image-rendering:auto;shape-rendering:auto;text-rendering:auto;enable-background:accumulate" />
  <path
     sodipodi:nodetypes="cccc"
     inkscape:connector-curvature="0"
     id="path1119"
     d="m 157.17518,15.137009 c -1.81395,-1.310503 -6.90441,-3.123231 -12.21817,0.766252 -0.37401,3.33532 5.07102,2.219131 5.72077,5.904708 2.67962,0.02757 6.16519,-4.273148 6.4974,-6.67096 z"
     style="fill:#fd5116;fill-opacity:1;stroke:none;stroke-width:0.0646283;stroke-linecap:butt;stroke-linejoin:miter;stroke-miterlimit:4;stroke-dasharray:none;stroke-opacity:1" />
  <path
     style="fill:#fd5116;fill-opacity:1;stroke:none;stroke-width:0.0497631;stroke-linecap:butt;stroke-linejoin:miter;stroke-miterlimit:4;stroke-dasharray:none;stroke-opacity:1"
     d="m 149.63962,21.841851 c -1.38352,-1.018698 -2.05475,-3.215476 -6.10761,-0.192044 -0.28525,2.592665 -4.7362,4.693978 1.15197,5.377629 2.04377,0.02142 4.70227,-3.321674 4.95564,-5.185585 z"
     id="path1123"
     inkscape:connector-curvature="0"
     sodipodi:nodetypes="cccc" />
  <path
     sodipodi:nodetypes="ccc"
     inkscape:connector-curvature="0"
     id="path1092"
     d="M 127.5146,37.433963 C 96.701452,43.7837 103.62001,60.264613 90.008523,66.71792 112.30012,57.989351 104.57584,42.825596 127.5146,37.433963 Z"
     style="color:#000000;font-style:normal;font-variant:normal;font-weight:normal;font-stretch:normal;font-size:medium;line-height:normal;font-family:sans-serif;font-variant-ligatures:normal;font-variant-position:normal;font-variant-caps:normal;font-variant-numeric:normal;font-variant-alternates:normal;font-feature-settings:normal;text-indent:0;text-align:start;text-decoration:none;text-decoration-line:none;text-decoration-style:solid;text-decoration-color:#000000;letter-spacing:normal;word-spacing:normal;text-transform:none;writing-mode:lr-tb;direction:ltr;text-orientation:mixed;dominant-baseline:auto;baseline-shift:baseline;text-anchor:start;white-space:normal;shape-padding:0;clip-rule:nonzero;display:inline;overflow:visible;visibility:visible;isolation:auto;mix-blend-mode:normal;color-interpolation:sRGB;color-interpolation-filters:linearRGB;solid-color:#000000;solid-opacity:1;vector-effect:none;fill:#552200;fill-opacity:1;fill-rule:nonzero;stroke:none;stroke-width:1.28243;stroke-linecap:butt;stroke-linejoin:miter;stroke-miterlimit:4;stroke-dasharray:none;stroke-dashoffset:0;stroke-opacity:1;color-rendering:auto;image-rendering:auto;shape-rendering:auto;text-rendering:auto;enable-background:accumulate" />
  <path
     style="color:#000000;font-style:normal;font-variant:normal;font-weight:normal;font-stretch:normal;font-size:medium;line-height:normal;font-family:sans-serif;font-variant-ligatures:normal;font-variant-position:normal;font-variant-caps:normal;font-variant-numeric:normal;font-variant-alternates:normal;font-feature-settings:normal;text-indent:0;text-align:start;text-decoration:none;text-decoration-line:none;text-decoration-style:solid;text-decoration-color:#000000;letter-spacing:normal;word-spacing:normal;text-transform:none;writing-mode:lr-tb;direction:ltr;text-orientation:mixed;dominant-baseline:auto;baseline-shift:baseline;text-anchor:start;white-space:normal;shape-padding:0;clip-rule:nonzero;display:inline;overflow:visible;visibility:visible;isolation:auto;mix-blend-mode:normal;color-interpolation:sRGB;color-interpolation-filters:linearRGB;solid-color:#000000;solid-opacity:1;vector-effect:none;fill:#552200;fill-opacity:1;fill-rule:nonzero;stroke:none;stroke-width:0.974629;stroke-linecap:butt;stroke-linejoin:miter;stroke-miterlimit:4;stroke-dasharray:none;stroke-dashoffset:0;stroke-opacity:1;color-rendering:auto;image-rendering:auto;shape-rendering:auto;text-rendering:auto;enable-background:accumulate"
     d="M 127.7619,50.581262 C 103.57269,52.545471 101.6425,65.133092 90.261431,66.371651 108.44141,65.664249 109.94945,52.973034 127.7619,50.581262 Z"
     id="path1131"
     inkscape:connector-curvature="0"
     sodipodi:nodetypes="ccc" />
  <path
     id="path1133"
     style="fill:#ececec;stroke-width:0.43607"
     d="m 154.4122,15.767898 a 0.61808974,0.61808974 0 0 1 -0.61809,0.618089 0.61808974,0.61808974 0 0 1 -0.61809,-0.618089 0.61808974,0.61808974 0 0 1 0.61809,-0.61809 0.61808974,0.61808974 0 0 1 0.61809,0.61809 z" />
  <path
     id="circle1135"
     style="fill:#ececec;stroke-width:0.43607"
     d="m 114.30995,30.249279 a 0.61808974,0.61808974 0 0 1 -0.61809,0.61809 0.61808974,0.61808974 0 0 1 -0.61809,-0.61809 0.61808974,0.61808974 0 0 1 0.61809,-0.61809 0.61808974,0.61808974 0 0 1 0.61809,0.61809 z" />
  <path
     id="circle1137"
     style="fill:#ececec;stroke-width:0.398374"
     d="m 121.25069,25.964851 a 0.40386811,0.78946704 0 0 1 -0.40387,0.789467 0.40386811,0.78946704 0 0 1 -0.40387,-0.789467 0.40386811,0.78946704 0 0 1 0.40387,-0.789467 0.40386811,0.78946704 0 0 1 0.40387,0.789467 z" />
  <path
     id="ellipse1139"
     style="fill:#ececec;stroke-width:0.553688"
     d="m 130.6765,21.423372 a 0.70377839,0.87515569 0 0 1 -0.70378,0.875156 0.70377839,0.87515569 0 0 1 -0.70378,-0.875156 0.70377839,0.87515569 0 0 1 0.70378,-0.875155 0.70377839,0.87515569 0 0 1 0.70378,0.875155 z" />
  <path
     id="ellipse1141"
     style="fill:#ececec;stroke-width:0.374397"
     d="m 133.24716,21.294817 a 0.48955679,0.57524544 0 0 1 -0.48956,0.575245 0.48955679,0.57524544 0 0 1 -0.48956,-0.575245 0.48955679,0.57524544 0 0 1 0.48956,-0.575245 0.48955679,0.57524544 0 0 1 0.48956,0.575245 z" />
  <path
     id="ellipse1143"
     style="fill:#ececec;stroke-width:0.374397"
     d="m 144.21528,16.153492 a 0.48955679,0.57524544 0 0 1 -0.48956,0.575245 0.48955679,0.57524544 0 0 1 -0.48955,-0.575245 0.48955679,0.57524544 0 0 1 0.48955,-0.575245 0.48955679,0.57524544 0 0 1 0.48956,0.575245 z" />
  <path
     id="ellipse1145"
     style="fill:#ececec;stroke-width:0.531437"
     d="m 140.1879,18.295715 a 0.6180898,0.91800004 0 0 1 -0.61809,0.918 0.6180898,0.91800004 0 0 1 -0.61809,-0.918 0.6180898,0.91800004 0 0 1 0.61809,-0.918 0.6180898,0.91800004 0 0 1 0.61809,0.918 z" />
  <path
     id="circle1147"
     style="fill:#ececec;stroke-width:0.85712"
     d="m 157.41131,22.365921 a 1.303599,1.1322217 0 0 1 -1.3036,1.132222 1.303599,1.1322217 0 0 1 -1.3036,-1.132222 1.303599,1.1322217 0 0 1 1.3036,-1.132222 1.303599,1.1322217 0 0 1 1.3036,1.132222 z" />
  <path
     id="ellipse1149"
     style="fill:#ececec;stroke-width:0.496524"
     d="m 151.67018,24.079695 a 0.70377839,0.70377839 0 0 1 -0.70378,0.703778 0.70377839,0.70377839 0 0 1 -0.70378,-0.703778 0.70377839,0.70377839 0 0 1 0.70378,-0.703779 0.70377839,0.70377839 0 0 1 0.70378,0.703779 z" />
  <path
     id="circle1151"
     style="fill:#ececec;stroke-width:1.42986"
     d="m 144.8151,34.788235 a 1.9034196,2.157963 0 0 1 -1.90342,2.157963 1.9034196,2.157963 0 0 1 -1.90342,-2.157963 1.9034196,2.157963 0 0 1 1.90342,-2.157963 1.9034196,2.157963 0 0 1 1.90342,2.157963 z" />
  <path
     id="ellipse1153"
     style="fill:#ececec;stroke-width:1.07219"
     d="m 136.136,27.566325 a 2.4530165,0.94153377 34.028288 0 1 -2.50529,-0.516299 2.4530165,0.94153377 34.028288 0 1 -1.59519,-2.172526 2.4530165,0.94153377 34.028288 0 1 2.50528,0.516298 2.4530165,0.94153377 34.028288 0 1 1.5952,2.172527 z" />
  <path
     id="circle1155"
     style="fill:#ececec;stroke-width:0.43607"
     d="m 140.39235,61.509486 a 0.61808974,0.61808974 0 0 1 0.2337,0.84229 0.61808974,0.61808974 0 0 1 -0.84229,0.233705 0.61808974,0.61808974 0 0 1 -0.2337,-0.84229 0.61808974,0.61808974 0 0 1 0.84229,-0.233705 z" />
  <path
     id="ellipse1157"
     style="fill:#ececec;stroke-width:0.398374"
     d="m 143.35204,56.630753 a 0.78946698,0.40386808 29.492609 0 1 0.48833,0.740195 0.78946698,0.40386808 29.492609 0 1 -0.88599,-0.03713 0.78946698,0.40386808 29.492609 0 1 -0.48834,-0.740199 0.78946698,0.40386808 29.492609 0 1 0.886,0.03713 z" />
  <path
     id="ellipse1159"
     style="fill:#ececec;stroke-width:0.553688"
     d="m 144.03943,46.190553 a 0.87515569,0.70377839 29.492609 0 1 0.41528,1.043433 0.87515569,0.70377839 29.492609 0 1 -1.10823,0.181731 0.87515569,0.70377839 29.492609 0 1 -0.41527,-1.043428 0.87515569,0.70377839 29.492609 0 1 1.10822,-0.181736 z" />
  <path
     id="ellipse1161"
     style="fill:#ececec;stroke-width:0.374397"
     d="m 145.19311,43.889708 a 0.57524538,0.48955676 29.492609 0 1 0.25968,0.709317 0.57524538,0.48955676 29.492609 0 1 -0.74171,0.142923 0.57524538,0.48955676 29.492609 0 1 -0.25969,-0.709322 0.57524538,0.48955676 29.492609 0 1 0.74172,-0.142918 z" />
  <path
     id="circle1163"
     style="fill:#ececec;stroke-width:0.43607"
     d="m 138.86569,49.073358 a 0.61808974,0.61808974 0 0 0 0.23371,-0.84229 0.61808974,0.61808974 0 0 0 -0.84229,-0.233705 0.61808974,0.61808974 0 0 0 -0.23371,0.84229 0.61808974,0.61808974 0 0 0 0.84229,0.233705 z" />
  <path
     id="ellipse1165"
     style="fill:#ececec;stroke-width:0.398374"
     d="m 141.82544,53.830875 a 0.40386808,0.78946698 60.507391 0 0 0.48834,-0.740191 0.40386808,0.78946698 60.507391 0 0 -0.886,0.03713 0.40386808,0.78946698 60.507391 0 0 -0.48834,0.7402 0.40386808,0.78946698 60.507391 0 0 0.886,-0.03714 z" />
  <path
     id="ellipse1167"
     style="fill:#ececec;stroke-width:0.553688"
     d="m 139.24092,67.664191 a 0.70377839,0.87515569 60.507391 0 0 0.41528,-1.043432 0.70377839,0.87515569 60.507391 0 0 -1.10823,-0.181735 0.70377839,0.87515569 60.507391 0 0 -0.41528,1.043432 0.70377839,0.87515569 60.507391 0 0 1.10823,0.181735 z" />
  <path
     id="ellipse1169"
     style="fill:#ececec;stroke-width:0.374397"
     d="m 140.39454,69.965029 a 0.48955676,0.57524544 60.507391 0 0 0.25969,-0.709323 0.48955676,0.57524544 60.507391 0 0 -0.74172,-0.142922 0.48955676,0.57524544 60.507391 0 0 -0.25969,0.709322 0.48955676,0.57524544 60.507391 0 0 0.74172,0.142923 z" />
  <path
     id="ellipse1171"
     style="fill:#ececec;stroke-width:0.553688"
     d="m 154.15072,30.252454 a 0.87515569,0.70377839 29.492609 0 1 0.41527,1.043428 0.87515569,0.70377839 29.492609 0 1 -1.10823,0.181736 0.87515569,0.70377839 29.492609 0 1 -0.41528,-1.043433 0.87515569,0.70377839 29.492609 0 1 1.10824,-0.181731 z" />
  <path
     id="circle1173"
     style="fill:#ececec;stroke-width:0.496524"
     d="m 147.6712,35.713169 a 0.70377839,0.70377839 0 0 1 -0.70378,0.703778 0.70377839,0.70377839 0 0 1 -0.70378,-0.703778 0.70377839,0.70377839 0 0 1 0.70378,-0.703778 0.70377839,0.70377839 0 0 1 0.70378,0.703778 z" />
  <path
     id="ellipse1179"
     style="fill:#ececec;stroke-width:0.553688"
     d="m 118.16146,109.42877 a 0.87515569,0.70377839 29.492609 0 1 0.41527,1.04343 0.87515569,0.70377839 29.492609 0 1 -1.10823,0.18174 0.87515569,0.70377839 29.492609 0 1 -0.41527,-1.04343 0.87515569,0.70377839 29.492609 0 1 1.10823,-0.18174 z" />
  <path
     id="circle1181"
     style="fill:#ececec;stroke-width:0.43607"
     d="m 112.98773,112.31156 a 0.61808974,0.61808974 0 0 0 0.2337,-0.84229 0.61808974,0.61808974 0 0 0 -0.84229,-0.23371 0.61808974,0.61808974 0 0 0 -0.2337,0.84229 0.61808974,0.61808974 0 0 0 0.84229,0.23371 z" />
  <path
     id="ellipse1183"
     style="fill:#ececec;stroke-width:0.553688"
     d="m 139.41224,80.294655 a 0.87515569,0.70377839 29.492609 0 1 0.41528,1.043433 0.87515569,0.70377839 29.492609 0 1 -1.10823,0.181731 0.87515569,0.70377839 29.492609 0 1 -0.41528,-1.043433 0.87515569,0.70377839 29.492609 0 1 1.10823,-0.181731 z" />
  <path
     id="circle1185"
     style="fill:#ececec;stroke-width:0.721805"
     d="m 135.94963,86.458181 a 1.0893773,0.96084432 89.999999 0 0 0.3633,-1.48453 1.0893773,0.96084432 89.999999 0 0 -1.30937,-0.411905 1.0893773,0.96084432 89.999999 0 0 -0.3633,1.48453 1.0893773,0.96084432 89.999999 0 0 1.30937,0.411905 z" />
  <path
     id="circle1187"
     style="fill:#ececec;stroke-width:0.715447"
     d="m 137.87833,95.958547 a 1.175066,0.87515569 89.999994 0 0 0.3309,-1.601305 1.175066,0.87515569 89.999994 0 0 -1.1926,-0.4443 1.175066,0.87515569 89.999994 0 0 -0.33091,1.601296 1.175066,0.87515569 89.999994 0 0 1.19261,0.444309 z" />
  <path
     id="circle1189"
     style="fill:#ececec;stroke-width:0.43607"
     d="m 128.58308,101.51479 a 0.61808974,0.61808974 0 0 0 0.23371,-0.84229 0.61808974,0.61808974 0 0 0 -0.84229,-0.2337 0.61808974,0.61808974 0 0 0 -0.23371,0.84229 0.61808974,0.61808974 0 0 0 0.84229,0.2337 z" />
  <path
     id="circle1191"
     style="fill:#ececec;stroke-width:0.43607"
     d="m 127.21208,112.65431 a 0.61808974,0.61808974 0 0 0 0.2337,-0.84229 0.61808974,0.61808974 0 0 0 -0.84228,-0.2337 0.61808974,0.61808974 0 0 0 -0.23371,0.84229 0.61808974,0.61808974 0 0 0 0.84229,0.2337 z" />
  <path
     id="circle1195"
     style="fill:#ececec;stroke-width:0.43607"
     d="m 134.66696,106.39905 a 0.61808974,0.61808974 0 0 0 0.23371,-0.84229 0.61808974,0.61808974 0 0 0 -0.84229,-0.23371 0.61808974,0.61808974 0 0 0 -0.23371,0.84229 0.61808974,0.61808974 0 0 0 0.84229,0.23371 z" />
  <path
     id="circle1197"
     style="fill:#ececec;stroke-width:0.614466"
     d="m 134.06453,96.00853 a 0.96084438,0.78946709 1.1391947e-6 0 0 0.3633,-1.075829 0.96084438,0.78946709 1.1391947e-6 0 0 -1.30937,-0.298509 0.96084438,0.78946709 1.1391947e-6 0 0 -0.3633,1.075837 0.96084438,0.78946709 1.1391947e-6 0 0 1.30937,0.298501 z" />
  <path
     id="circle1199"
     style="fill:#ececec;stroke-width:0.43607"
     d="m 141.9505,89.004214 a 0.61808974,0.61808974 0 0 0 0.2337,-0.84229 0.61808974,0.61808974 0 0 0 -0.84228,-0.233696 0.61808974,0.61808974 0 0 0 -0.23371,0.842281 0.61808974,0.61808974 0 0 0 0.84229,0.233705 z" />
  <path
     id="circle1201"
     style="fill:#ececec;stroke-width:0.43607"
     d="m 125.49829,106.74177 a 0.61808974,0.61808974 0 0 0 0.2337,-0.84229 0.61808974,0.61808974 0 0 0 -0.84229,-0.23371 0.61808974,0.61808974 0 0 0 -0.2337,0.84229 0.61808974,0.61808974 0 0 0 0.84229,0.23371 z" />
  <path
     id="circle1203"
     style="fill:#ececec;stroke-width:0.915223"
     d="m 121.87367,112.54883 a 1.432132,1.175066 90 0 0 0.4443,-1.95161 1.432132,1.175066 90 0 0 -1.6013,-0.5415 1.432132,1.175066 90 0 0 -0.4443,1.95161 1.432132,1.175066 90 0 0 1.6013,0.5415 z" />
  <path
     id="circle1205"
     style="fill:#ececec;stroke-width:0.43607"
     d="m 130.811,105.19941 a 0.61808974,0.61808974 0 0 0 0.2337,-0.84229 0.61808974,0.61808974 0 0 0 -0.84229,-0.2337 0.61808974,0.61808974 0 0 0 -0.2337,0.84229 0.61808974,0.61808974 0 0 0 0.84229,0.2337 z" />
  <path
     id="circle1207"
     style="fill:#ececec;stroke-width:0.43607"
     d="m 132.52476,101.51478 a 0.61808974,0.61808974 0 0 0 0.23371,-0.84229 0.61808974,0.61808974 0 0 0 -0.84229,-0.23371 0.61808974,0.61808974 0 0 0 -0.23371,0.84229 0.61808974,0.61808974 0 0 0 0.84229,0.23371 z" />
  <path
     id="circle1209"
     style="fill:#ececec;stroke-width:0.43607"
     d="m 134.15287,103.57132 a 0.61808974,0.61808974 0 0 0 0.2337,-0.84228 0.61808974,0.61808974 0 0 0 -0.84229,-0.23371 0.61808974,0.61808974 0 0 0 -0.2337,0.84229 0.61808974,0.61808974 0 0 0 0.84229,0.2337 z" />
  <path
     style="color:#000000;font-style:normal;font-variant:normal;font-weight:normal;font-stretch:normal;font-size:medium;line-height:normal;font-family:sans-serif;font-variant-ligatures:normal;font-variant-position:normal;font-variant-caps:normal;font-variant-numeric:normal;font-variant-alternates:normal;font-feature-settings:normal;text-indent:0;text-align:start;text-decoration:none;text-decoration-line:none;text-decoration-style:solid;text-decoration-color:#000000;letter-spacing:normal;word-spacing:normal;text-transform:none;writing-mode:lr-tb;direction:ltr;text-orientation:mixed;dominant-baseline:auto;baseline-shift:baseline;text-anchor:start;white-space:normal;shape-padding:0;clip-rule:nonzero;display:inline;overflow:visible;visibility:visible;isolation:auto;mix-blend-mode:normal;color-interpolation:sRGB;color-interpolation-filters:linearRGB;solid-color:#000000;solid-opacity:1;vector-effect:none;fill:#552200;fill-opacity:1;fill-rule:nonzero;stroke:none;stroke-width:2.02998;stroke-linecap:butt;stroke-linejoin:miter;stroke-miterlimit:4;stroke-dasharray:none;stroke-dashoffset:0;stroke-opacity:1;color-rendering:auto;image-rendering:auto;shape-rendering:auto;text-rendering:auto;enable-background:accumulate"
     d="m 107.99729,79.449596 c 2.3858,0.350591 9.86191,1.378266 10.99098,4.378333 1.12908,3.00008 -1.96081,6.491984 -1.96081,6.491984 4.84651,-1.982086 5.8863,-6.46663 4.89059,-8.882922 -1.87326,-3.395286 -7.26171,-2.969737 -13.92076,-1.987395 z"
     id="path1759"
     inkscape:connector-curvature="0"
     sodipodi:nodetypes="czccc" />
  <path
     id="path1763"
     style="fill:#9c0800;stroke-width:1.28243"
     d="m 116.79062,86.693466 a 5.8268285,4.9699421 0 0 1 -5.82683,4.969942 5.8268285,4.9699421 0 0 1 -5.82683,-4.969942 5.8268285,4.9699421 0 0 1 5.82683,-4.969942 5.8268285,4.9699421 0 0 1 5.82683,4.969942 z" />
  <path
     id="ellipse1765"
     style="stroke-width:0.945056"
     d="m 114.81548,86.395714 a 3.8559897,4.078454 0 0 1 -3.85599,4.078454 3.8559897,4.078454 0 0 1 -3.85599,-4.078454 3.8559897,4.078454 0 0 1 3.85599,-4.078454 3.8559897,4.078454 0 0 1 3.85599,4.078454 z" />
  <path
     id="ellipse1767"
     style="fill:#f2f2f2;stroke-width:0.550347"
     d="m 113.54305,86.759232 a 2.4926918,2.1395409 0 0 1 -2.49269,2.13954 2.4926918,2.1395409 0 0 1 -2.49269,-2.13954 2.4926918,2.1395409 0 0 1 2.49269,-2.139541 2.4926918,2.1395409 0 0 1 2.49269,2.139541 z" />
  <path
     style="fill:#000000;fill-opacity:1;stroke:none;stroke-width:0.26676;stroke-linecap:butt;stroke-linejoin:miter;stroke-miterlimit:4;stroke-dasharray:none;stroke-opacity:1"
     d="M 81.904475,71.245877 C 76.830487,56.835256 24.988178,70.659409 23.369046,82.118581 c 1.425396,14.108262 9.675426,32.674629 25.11857,35.698969 26.206521,-0.84221 38.490847,-32.161051 33.416859,-46.571673 z"
     id="path1466"
     inkscape:connector-curvature="0"
     sodipodi:nodetypes="zccz" />
  <path
     sodipodi:nodetypes="sccsscccccccs"
     inkscape:connector-curvature="0"
     id="path1468"
     d="M 81.907411,69.879525 C 77.916295,58.071468 37.303462,71.525563 36.02988,80.915212 c 0.238776,2.461933 2.439465,7.763039 2.439465,7.763039 0.940779,-3.816654 7.555902,-7.535934 7.703407,-7.243488 0.121318,0.240443 -5.934101,2.539866 -6.898348,8.837922 -0.941266,6.148049 7.159246,10.922495 8.739123,13.389355 0.189031,-3.43247 -0.226644,-8.199756 4.401905,-11.565893 -3.780323,4.548435 -2.997848,7.318101 -3.437902,12.747783 2.906719,2.65373 4.465847,2.75189 6.644786,3.19641 2.41247,-0.0808 6.207734,-1.28055 7.474416,-1.55177 0.115419,-4.33083 0.343217,-7.424234 2.62611,-13.481448 -2.092208,8.550618 -1.781206,10.150298 -1.231838,13.020658 6.417205,-5.11001 20.78248,-26.189451 17.416407,-36.148255 z"
     style="fill:url(#linearGradient1566);fill-opacity:1;stroke:none;stroke-width:0.214161;stroke-linecap:butt;stroke-linejoin:miter;stroke-miterlimit:4;stroke-dasharray:none;stroke-opacity:1" />
  <path
     style="fill:#000000;fill-opacity:1;stroke:#20161f;stroke-width:0.384729;stroke-linecap:butt;stroke-linejoin:miter;stroke-miterlimit:4;stroke-dasharray:none;stroke-opacity:1"
     d="M 81.261977,66.822928 C 71.243578,37.965457 54.529057,20.188032 14.605479,12.190936 0.65977743,23.837996 32.302714,47.512191 22.04895,65.085145 c 7.356599,16.217489 48.879958,9.830844 59.213027,1.737783 z"
     id="path1470"
     inkscape:connector-curvature="0"
     sodipodi:nodetypes="cccc" />
  <path
     sodipodi:nodetypes="ccscsccccc"
     inkscape:connector-curvature="0"
     id="path1472"
     d="M 80.016801,66.775247 C 77.038882,56.989584 63.673172,35.020701 34.191721,29.115288 c -3.675715,3.069844 -5.170811,8.545707 -1.349848,11.127201 1.92598,1.301206 4.72922,0.222874 11.522857,4.015162 -5.362714,-2.873914 -10.299392,-2.416715 -10.428649,-1.692949 -0.563833,3.15719 0.513037,8.151706 2.423435,9.264163 2.323008,0.46987 8.718682,0.787605 14.835927,4.982525 -8.19277,-4.45964 -14.213756,-4.327229 -14.366442,-3.469039 0.525258,2.205563 4.273841,7.947325 1.995488,11.851993 9.524484,8.835793 33.561901,7.557197 41.192312,1.580903 z"
     style="fill:url(#linearGradient1568);fill-opacity:1;stroke:none;stroke-width:0.284102;stroke-linecap:butt;stroke-linejoin:miter;stroke-miterlimit:4;stroke-dasharray:none;stroke-opacity:1" />
  <path
     sodipodi:nodetypes="ccc"
     inkscape:connector-curvature="0"
     id="path1474"
     d="M 42.408087,37.433966 C 73.221253,43.783703 66.302693,60.264617 79.914181,66.717923 57.622575,57.989354 65.346859,42.825599 42.408087,37.433966 Z"
     style="color:#000000;font-style:normal;font-variant:normal;font-weight:normal;font-stretch:normal;font-size:medium;line-height:normal;font-family:sans-serif;font-variant-ligatures:normal;font-variant-position:normal;font-variant-caps:normal;font-variant-numeric:normal;font-variant-alternates:normal;font-feature-settings:normal;text-indent:0;text-align:start;text-decoration:none;text-decoration-line:none;text-decoration-style:solid;text-decoration-color:#000000;letter-spacing:normal;word-spacing:normal;text-transform:none;writing-mode:lr-tb;direction:ltr;text-orientation:mixed;dominant-baseline:auto;baseline-shift:baseline;text-anchor:start;white-space:normal;shape-padding:0;clip-rule:nonzero;display:inline;overflow:visible;visibility:visible;isolation:auto;mix-blend-mode:normal;color-interpolation:sRGB;color-interpolation-filters:linearRGB;solid-color:#000000;solid-opacity:1;vector-effect:none;fill:#552200;fill-opacity:1;fill-rule:nonzero;stroke:none;stroke-width:1.28243;stroke-linecap:butt;stroke-linejoin:miter;stroke-miterlimit:4;stroke-dasharray:none;stroke-dashoffset:0;stroke-opacity:1;color-rendering:auto;image-rendering:auto;shape-rendering:auto;text-rendering:auto;enable-background:accumulate" />
  <path
     style="color:#000000;font-style:normal;font-variant:normal;font-weight:normal;font-stretch:normal;font-size:medium;line-height:normal;font-family:sans-serif;font-variant-ligatures:normal;font-variant-position:normal;font-variant-caps:normal;font-variant-numeric:normal;font-variant-alternates:normal;font-feature-settings:normal;text-indent:0;text-align:start;text-decoration:none;text-decoration-line:none;text-decoration-style:solid;text-decoration-color:#000000;letter-spacing:normal;word-spacing:normal;text-transform:none;writing-mode:lr-tb;direction:ltr;text-orientation:mixed;dominant-baseline:auto;baseline-shift:baseline;text-anchor:start;white-space:normal;shape-padding:0;clip-rule:nonzero;display:inline;overflow:visible;visibility:visible;isolation:auto;mix-blend-mode:normal;color-interpolation:sRGB;color-interpolation-filters:linearRGB;solid-color:#000000;solid-opacity:1;vector-effect:none;fill:#fd5116;fill-opacity:1;fill-rule:nonzero;stroke:none;stroke-width:0.479869;stroke-linecap:butt;stroke-linejoin:miter;stroke-miterlimit:4;stroke-dasharray:none;stroke-dashoffset:0;stroke-opacity:1;color-rendering:auto;image-rendering:auto;shape-rendering:auto;text-rendering:auto;enable-background:accumulate"
     d="M 45.500733,34.531685 C 40.950964,33.287753 27.314918,31.409133 19.878257,31.33874 31.68171,30.978916 40.814103,32.867 45.500733,34.531685 Z"
     id="path1476"
     inkscape:connector-curvature="0"
     sodipodi:nodetypes="ccc" />
  <path
     style="color:#000000;font-style:normal;font-variant:normal;font-weight:normal;font-stretch:normal;font-size:medium;line-height:normal;font-family:sans-serif;font-variant-ligatures:normal;font-variant-position:normal;font-variant-caps:normal;font-variant-numeric:normal;font-variant-alternates:normal;font-feature-settings:normal;text-indent:0;text-align:start;text-decoration:none;text-decoration-line:none;text-decoration-style:solid;text-decoration-color:#000000;letter-spacing:normal;word-spacing:normal;text-transform:none;writing-mode:lr-tb;direction:ltr;text-orientation:mixed;dominant-baseline:auto;baseline-shift:baseline;text-anchor:start;white-space:normal;shape-padding:0;clip-rule:nonzero;display:inline;overflow:visible;visibility:visible;isolation:auto;mix-blend-mode:normal;color-interpolation:sRGB;color-interpolation-filters:linearRGB;solid-color:#000000;solid-opacity:1;vector-effect:none;fill:#fd5116;fill-opacity:1;fill-rule:nonzero;stroke:none;stroke-width:1.28243;stroke-linecap:butt;stroke-linejoin:miter;stroke-miterlimit:4;stroke-dasharray:none;stroke-dashoffset:0;stroke-opacity:1;color-rendering:auto;image-rendering:auto;shape-rendering:auto;text-rendering:auto;enable-background:accumulate"
     d="M 17.696086,17.756531 C 60.556212,25.038364 70.276715,49.473656 80.119549,64.374563 60.932233,25.451345 42.379566,22.816463 17.696086,17.756531 Z"
     id="path1478"
     inkscape:connector-curvature="0"
     sodipodi:nodetypes="ccc" />
  <path
     sodipodi:nodetypes="ccc"
     inkscape:connector-curvature="0"
     id="path1480"
     d="M 73.548183,53.136393 C 55.107715,29.964808 37.476154,27.455297 29.566789,25.374553 c 16.721074,3.422602 29.627892,7.70038 43.981394,27.76184 z"
     style="color:#000000;font-style:normal;font-variant:normal;font-weight:normal;font-stretch:normal;font-size:medium;line-height:normal;font-family:sans-serif;font-variant-ligatures:normal;font-variant-position:normal;font-variant-caps:normal;font-variant-numeric:normal;font-variant-alternates:normal;font-feature-settings:normal;text-indent:0;text-align:start;text-decoration:none;text-decoration-line:none;text-decoration-style:solid;text-decoration-color:#000000;letter-spacing:normal;word-spacing:normal;text-transform:none;writing-mode:lr-tb;direction:ltr;text-orientation:mixed;dominant-baseline:auto;baseline-shift:baseline;text-anchor:start;white-space:normal;shape-padding:0;clip-rule:nonzero;display:inline;overflow:visible;visibility:visible;isolation:auto;mix-blend-mode:normal;color-interpolation:sRGB;color-interpolation-filters:linearRGB;solid-color:#000000;solid-opacity:1;vector-effect:none;fill:#fd5116;fill-opacity:1;fill-rule:nonzero;stroke:none;stroke-width:0.766528;stroke-linecap:butt;stroke-linejoin:miter;stroke-miterlimit:4;stroke-dasharray:none;stroke-dashoffset:0;stroke-opacity:1;color-rendering:auto;image-rendering:auto;shape-rendering:auto;text-rendering:auto;enable-background:accumulate" />
  <path
     style="fill:#fd5116;fill-opacity:1;stroke:none;stroke-width:0.0646283;stroke-linecap:butt;stroke-linejoin:miter;stroke-miterlimit:4;stroke-dasharray:none;stroke-opacity:1"
     d="m 12.747507,15.137012 c 1.813959,-1.310503 6.904414,-3.123231 12.218178,0.766253 0.374008,3.335319 -5.071026,2.21913 -5.720769,5.904708 -2.679626,0.02757 -6.165196,-4.273149 -6.497409,-6.670961 z"
     id="path1482"
     inkscape:connector-curvature="0"
     sodipodi:nodetypes="cccc" />
  <path
     sodipodi:nodetypes="cccc"
     inkscape:connector-curvature="0"
     id="path1484"
     d="m 20.283069,21.841854 c 1.383524,-1.018698 2.054749,-3.215476 6.107614,-0.192044 0.285251,2.592665 4.736196,4.693979 -1.151969,5.377629 -2.043771,0.02142 -4.702275,-3.321674 -4.955645,-5.185585 z"
     style="fill:#fd5116;fill-opacity:1;stroke:none;stroke-width:0.0497631;stroke-linecap:butt;stroke-linejoin:miter;stroke-miterlimit:4;stroke-dasharray:none;stroke-opacity:1" />
  <path
     style="color:#000000;font-style:normal;font-variant:normal;font-weight:normal;font-stretch:normal;font-size:medium;line-height:normal;font-family:sans-serif;font-variant-ligatures:normal;font-variant-position:normal;font-variant-caps:normal;font-variant-numeric:normal;font-variant-alternates:normal;font-feature-settings:normal;text-indent:0;text-align:start;text-decoration:none;text-decoration-line:none;text-decoration-style:solid;text-decoration-color:#000000;letter-spacing:normal;word-spacing:normal;text-transform:none;writing-mode:lr-tb;direction:ltr;text-orientation:mixed;dominant-baseline:auto;baseline-shift:baseline;text-anchor:start;white-space:normal;shape-padding:0;clip-rule:nonzero;display:inline;overflow:visible;visibility:visible;isolation:auto;mix-blend-mode:normal;color-interpolation:sRGB;color-interpolation-filters:linearRGB;solid-color:#000000;solid-opacity:1;vector-effect:none;fill:#552200;fill-opacity:1;fill-rule:nonzero;stroke:none;stroke-width:0.974629;stroke-linecap:butt;stroke-linejoin:miter;stroke-miterlimit:4;stroke-dasharray:none;stroke-dashoffset:0;stroke-opacity:1;color-rendering:auto;image-rendering:auto;shape-rendering:auto;text-rendering:auto;enable-background:accumulate"
     d="M 42.160796,50.581265 C 66.350015,52.545474 68.280201,65.133095 79.661273,66.371654 61.481293,65.664252 59.973257,52.973037 42.160796,50.581265 Z"
     id="path1486"
     inkscape:connector-curvature="0"
     sodipodi:nodetypes="ccc" />
  <path
     id="circle1488"
     style="fill:#ececec;stroke-width:0.43607"
     d="m 15.510466,15.7679 a -0.61808974,0.61808974 0 0 0 0.618089,0.61809 -0.61808974,0.61808974 0 0 0 0.61809,-0.61809 -0.61808974,0.61808974 0 0 0 -0.61809,-0.618089 -0.61808974,0.61808974 0 0 0 -0.618089,0.618089 z" />
  <path
     id="circle1490"
     style="fill:#ececec;stroke-width:0.43607"
     d="m 55.61278,30.249283 a -0.61808974,0.61808974 0 0 0 0.618089,0.61809 -0.61808974,0.61808974 0 0 0 0.61809,-0.61809 -0.61808974,0.61808974 0 0 0 -0.61809,-0.61809 -0.61808974,0.61808974 0 0 0 -0.618089,0.61809 z" />
  <path
     id="ellipse1492"
     style="fill:#ececec;stroke-width:0.398374"
     d="m 48.671995,25.964853 a -0.40386811,0.78946704 0 0 0 0.403868,0.789467 -0.40386811,0.78946704 0 0 0 0.403868,-0.789467 -0.40386811,0.78946704 0 0 0 -0.403868,-0.789467 -0.40386811,0.78946704 0 0 0 -0.403868,0.789467 z" />
  <path
     id="ellipse1494"
     style="fill:#ececec;stroke-width:0.553688"
     d="m 39.246234,21.423374 a -0.70377839,0.87515569 0 0 0 0.703778,0.875156 -0.70377839,0.87515569 0 0 0 0.703779,-0.875156 -0.70377839,0.87515569 0 0 0 -0.703779,-0.875156 -0.70377839,0.87515569 0 0 0 -0.703778,0.875156 z" />
  <path
     id="ellipse1496"
     style="fill:#ececec;stroke-width:0.374397"
     d="m 36.675566,21.294821 a -0.48955679,0.57524544 0 0 0 0.489557,0.575245 -0.48955679,0.57524544 0 0 0 0.489557,-0.575245 -0.48955679,0.57524544 0 0 0 -0.489557,-0.575246 -0.48955679,0.57524544 0 0 0 -0.489557,0.575246 z" />
  <path
     id="ellipse1498"
     style="fill:#ececec;stroke-width:0.374397"
     d="m 25.707436,16.153494 a -0.48955679,0.57524544 0 0 0 0.489557,0.575245 -0.48955679,0.57524544 0 0 0 0.489557,-0.575245 -0.48955679,0.57524544 0 0 0 -0.489557,-0.575246 -0.48955679,0.57524544 0 0 0 -0.489557,0.575246 z" />
  <path
     id="ellipse1500"
     style="fill:#ececec;stroke-width:0.531437"
     d="m 29.734787,18.295719 a -0.6180898,0.91800004 0 0 0 0.61809,0.918 -0.6180898,0.91800004 0 0 0 0.618089,-0.918 -0.6180898,0.91800004 0 0 0 -0.618089,-0.918 -0.6180898,0.91800004 0 0 0 -0.61809,0.918 z" />
  <path
     id="ellipse1502"
     style="fill:#ececec;stroke-width:0.85712"
     d="m 12.511352,22.365923 a -1.303599,1.1322217 0 0 0 1.303599,1.132222 -1.303599,1.1322217 0 0 0 1.303599,-1.132222 -1.303599,1.1322217 0 0 0 -1.303599,-1.132222 -1.303599,1.1322217 0 0 0 -1.303599,1.132222 z" />
  <path
     id="circle1504"
     style="fill:#ececec;stroke-width:0.496524"
     d="m 18.252478,24.079699 a -0.70377839,0.70377839 0 0 0 0.703779,0.703778 -0.70377839,0.70377839 0 0 0 0.703778,-0.703778 -0.70377839,0.70377839 0 0 0 -0.703778,-0.703779 -0.70377839,0.70377839 0 0 0 -0.703779,0.703779 z" />
  <path
     id="ellipse1506"
     style="fill:#ececec;stroke-width:1.42986"
     d="m 25.107576,34.788239 a -1.9034196,2.157963 0 0 0 1.90342,2.157963 -1.9034196,2.157963 0 0 0 1.903419,-2.157963 -1.9034196,2.157963 0 0 0 -1.903419,-2.157964 -1.9034196,2.157963 0 0 0 -1.90342,2.157964 z" />
  <path
     id="ellipse1508"
     style="fill:#ececec;stroke-width:1.07219"
     d="m 33.786726,27.566319 a 0.94153377,2.4530165 55.971712 0 0 2.505283,-0.5163 0.94153377,2.4530165 55.971712 0 0 1.595201,-2.172527 0.94153377,2.4530165 55.971712 0 0 -2.505284,0.516299 0.94153377,2.4530165 55.971712 0 0 -1.5952,2.172528 z" />
  <path
     id="circle1510"
     style="fill:#ececec;stroke-width:0.43607"
     d="m 29.530347,61.509451 a 0.61808974,0.61808974 0 0 0 -0.233704,0.84229 0.61808974,0.61808974 0 0 0 0.84229,0.233705 0.61808974,0.61808974 0 0 0 0.233704,-0.84229 0.61808974,0.61808974 0 0 0 -0.84229,-0.233705 z" />
  <path
     id="ellipse1512"
     style="fill:#ececec;stroke-width:0.398374"
     d="m 26.570658,56.630717 a 0.40386808,0.78946698 60.507391 0 0 -0.488338,0.740198 0.40386808,0.78946698 60.507391 0 0 0.885996,-0.03713 0.40386808,0.78946698 60.507391 0 0 0.488338,-0.740198 0.40386808,0.78946698 60.507391 0 0 -0.885996,0.03713 z" />
  <path
     id="ellipse1514"
     style="fill:#ececec;stroke-width:0.553688"
     d="m 25.883257,46.190523 a 0.70377839,0.87515569 60.507391 0 0 -0.415275,1.043431 0.70377839,0.87515569 60.507391 0 0 1.108231,0.181733 0.70377839,0.87515569 60.507391 0 0 0.415274,-1.043431 0.70377839,0.87515569 60.507391 0 0 -1.10823,-0.181733 z" />
  <path
     id="ellipse1516"
     style="fill:#ececec;stroke-width:0.374397"
     d="m 24.72957,43.88971 a 0.48955676,0.57524544 60.507391 0 0 -0.25969,0.70932 0.48955676,0.57524544 60.507391 0 0 0.741718,0.142919 0.48955676,0.57524544 60.507391 0 0 0.259691,-0.709319 0.48955676,0.57524544 60.507391 0 0 -0.741719,-0.14292 z" />
  <path
     id="circle1518"
     style="fill:#ececec;stroke-width:0.43607"
     d="m 31.056945,49.073327 a 0.61808974,0.61808974 0 0 1 -0.233705,-0.842291 0.61808974,0.61808974 0 0 1 0.84229,-0.233704 0.61808974,0.61808974 0 0 1 0.233704,0.842289 0.61808974,0.61808974 0 0 1 -0.842289,0.233706 z" />
  <path
     id="ellipse1520"
     style="fill:#ececec;stroke-width:0.398374"
     d="m 28.097264,53.830891 a 0.78946698,0.40386811 29.49261 0 1 -0.488339,-0.740198 0.78946698,0.40386811 29.49261 0 1 0.885996,0.03713 0.78946698,0.40386811 29.49261 0 1 0.488339,0.740198 0.78946698,0.40386811 29.49261 0 1 -0.885996,-0.03713 z" />
  <path
     id="ellipse1522"
     style="fill:#ececec;stroke-width:0.553688"
     d="m 30.681782,67.664195 a 0.87515569,0.70377839 29.49261 0 1 -0.415273,-1.043431 0.87515569,0.70377839 29.49261 0 1 1.108229,-0.181733 0.87515569,0.70377839 29.49261 0 1 0.415275,1.043431 0.87515569,0.70377839 29.49261 0 1 -1.108231,0.181733 z" />
  <path
     id="ellipse1524"
     style="fill:#ececec;stroke-width:0.374397"
     d="m 29.528105,69.964991 a 0.57524544,0.48955679 29.49261 0 1 -0.25969,-0.709319 0.57524544,0.48955679 29.49261 0 1 0.741718,-0.14292 0.57524544,0.48955679 29.49261 0 1 0.259691,0.709319 0.57524544,0.48955679 29.49261 0 1 -0.741719,0.14292 z" />
  <path
     id="ellipse1526"
     style="fill:#ececec;stroke-width:0.553688"
     d="m 15.771988,30.252437 a 0.70377839,0.87515569 60.507391 0 0 -0.415275,1.043431 0.70377839,0.87515569 60.507391 0 0 1.10823,0.181733 0.70377839,0.87515569 60.507391 0 0 0.415275,-1.043431 0.70377839,0.87515569 60.507391 0 0 -1.10823,-0.181733 z" />
  <path
     id="circle1528"
     style="fill:#ececec;stroke-width:0.496524"
     d="m 22.251466,35.713173 a -0.70377839,0.70377839 0 0 0 0.703778,0.703778 -0.70377839,0.70377839 0 0 0 0.703778,-0.703778 -0.70377839,0.70377839 0 0 0 -0.703778,-0.703778 -0.70377839,0.70377839 0 0 0 -0.703778,0.703778 z" />
  <path
     id="ellipse1534"
     style="fill:#ececec;stroke-width:0.553688"
     d="m 51.76121,109.42876 a 0.70377839,0.87515569 60.507391 0 0 -0.415274,1.04343 0.70377839,0.87515569 60.507391 0 0 1.108231,0.18173 0.70377839,0.87515569 60.507391 0 0 0.415274,-1.04343 0.70377839,0.87515569 60.507391 0 0 -1.108231,-0.18173 z" />
  <path
     id="circle1536"
     style="fill:#ececec;stroke-width:0.43607"
     d="m 56.93492,112.31159 a 0.61808974,0.61808974 0 0 1 -0.233705,-0.84229 0.61808974,0.61808974 0 0 1 0.84229,-0.23371 0.61808974,0.61808974 0 0 1 0.233705,0.84229 0.61808974,0.61808974 0 0 1 -0.84229,0.23371 z" />
  <path
     id="ellipse1538"
     style="fill:#ececec;stroke-width:0.553688"
     d="m 30.510452,80.294625 a 0.70377839,0.87515569 60.507391 0 0 -0.415274,1.043432 0.70377839,0.87515569 60.507391 0 0 1.10823,0.181733 0.70377839,0.87515569 60.507391 0 0 0.415274,-1.043431 0.70377839,0.87515569 60.507391 0 0 -1.10823,-0.181734 z" />
  <path
     id="ellipse1540"
     style="fill:#ececec;stroke-width:0.721805"
     d="m 33.973036,86.458242 a 0.96084432,1.0893773 6.5845884e-7 0 1 -0.363303,-1.484528 0.96084432,1.0893773 6.5845884e-7 0 1 1.309373,-0.411902 0.96084432,1.0893773 6.5845884e-7 0 1 0.363302,1.484528 0.96084432,1.0893773 6.5845884e-7 0 1 -1.309372,0.411902 z" />
  <path
     id="ellipse1542"
     style="fill:#ececec;stroke-width:0.715447"
     d="m 32.044376,95.958551 a 0.87515569,1.175066 5.856126e-6 0 1 -0.330903,-1.601298 0.87515569,1.175066 5.856126e-6 0 1 1.192602,-0.444303 0.87515569,1.175066 5.856126e-6 0 1 0.330903,1.601299 0.87515569,1.175066 5.856126e-6 0 1 -1.192602,0.444302 z" />
  <path
     id="circle1544"
     style="fill:#ececec;stroke-width:0.43607"
     d="m 41.339623,101.5148 a 0.61808974,0.61808974 0 0 1 -0.233704,-0.84229 0.61808974,0.61808974 0 0 1 0.842289,-0.2337 0.61808974,0.61808974 0 0 1 0.233705,0.84229 0.61808974,0.61808974 0 0 1 -0.84229,0.2337 z" />
  <path
     id="circle1546"
     style="fill:#ececec;stroke-width:0.43607"
     d="m 42.710629,112.65432 a 0.61808974,0.61808974 0 0 1 -0.233705,-0.84229 0.61808974,0.61808974 0 0 1 0.84229,-0.2337 0.61808974,0.61808974 0 0 1 0.233705,0.84229 0.61808974,0.61808974 0 0 1 -0.84229,0.2337 z" />
  <path
     id="circle1548"
     style="fill:#ececec;stroke-width:0.43607"
     d="m 35.255708,106.39904 a 0.61808974,0.61808974 0 0 1 -0.233704,-0.84229 0.61808974,0.61808974 0 0 1 0.84229,-0.2337 0.61808974,0.61808974 0 0 1 0.233704,0.84229 0.61808974,0.61808974 0 0 1 -0.84229,0.2337 z" />
  <path
     id="ellipse1550"
     style="fill:#ececec;stroke-width:0.614466"
     d="m 35.858187,96.008528 a 0.78946709,0.96084438 89.999999 0 1 -0.363303,-1.07583 0.78946709,0.96084438 89.999999 0 1 1.309372,-0.298504 0.78946709,0.96084438 89.999999 0 1 0.363303,1.075831 0.78946709,0.96084438 89.999999 0 1 -1.309372,0.298503 z" />
  <path
     id="circle1552"
     style="fill:#ececec;stroke-width:0.43607"
     d="m 27.972151,89.004242 a 0.61808974,0.61808974 0 0 1 -0.233705,-0.84229 0.61808974,0.61808974 0 0 1 0.84229,-0.233704 0.61808974,0.61808974 0 0 1 0.233705,0.842289 0.61808974,0.61808974 0 0 1 -0.84229,0.233705 z" />
  <path
     id="circle1554"
     style="fill:#ececec;stroke-width:0.43607"
     d="m 44.424363,106.74179 a 0.61808974,0.61808974 0 0 1 -0.233705,-0.84229 0.61808974,0.61808974 0 0 1 0.84229,-0.2337 0.61808974,0.61808974 0 0 1 0.233705,0.84229 0.61808974,0.61808974 0 0 1 -0.84229,0.2337 z" />
  <path
     id="ellipse1556"
     style="fill:#ececec;stroke-width:0.915223"
     d="m 48.04905,112.54885 a 1.175066,1.432132 1.3797964e-7 0 1 -0.444301,-1.9516 1.175066,1.432132 1.3797964e-7 0 1 1.601297,-0.54151 1.175066,1.432132 1.3797964e-7 0 1 0.444302,1.95161 1.175066,1.432132 1.3797964e-7 0 1 -1.601298,0.5415 z" />
  <path
     id="circle1558"
     style="fill:#ececec;stroke-width:0.43607"
     d="m 39.111678,105.19939 a 0.61808974,0.61808974 0 0 1 -0.233705,-0.84229 0.61808974,0.61808974 0 0 1 0.84229,-0.2337 0.61808974,0.61808974 0 0 1 0.233705,0.84229 0.61808974,0.61808974 0 0 1 -0.84229,0.2337 z" />
  <path
     id="circle1560"
     style="fill:#ececec;stroke-width:0.43607"
     d="m 37.397889,101.5148 a 0.61808974,0.61808974 0 0 1 -0.233705,-0.84229 0.61808974,0.61808974 0 0 1 0.84229,-0.2337 0.61808974,0.61808974 0 0 1 0.233704,0.84229 0.61808974,0.61808974 0 0 1 -0.842289,0.2337 z" />
  <path
     id="circle1562"
     style="fill:#ececec;stroke-width:0.43607"
     d="m 35.769838,103.57133 a 0.61808974,0.61808974 0 0 1 -0.233705,-0.84229 0.61808974,0.61808974 0 0 1 0.84229,-0.2337 0.61808974,0.61808974 0 0 1 0.233705,0.84229 0.61808974,0.61808974 0 0 1 -0.84229,0.2337 z" />
  <path
     sodipodi:nodetypes="czccc"
     inkscape:connector-curvature="0"
     id="path1761"
     d="m 62.713952,79.449599 c -2.385795,0.350591 -9.861904,1.378266 -10.990981,4.378333 -1.129078,3.00008 1.96081,6.491985 1.96081,6.491985 -4.84651,-1.982087 -5.886292,-6.466631 -4.890587,-8.882923 1.873259,-3.395299 7.261712,-2.96975 13.920758,-1.987395 z"
     style="color:#000000;font-style:normal;font-variant:normal;font-weight:normal;font-stretch:normal;font-size:medium;line-height:normal;font-family:sans-serif;font-variant-ligatures:normal;font-variant-position:normal;font-variant-caps:normal;font-variant-numeric:normal;font-variant-alternates:normal;font-feature-settings:normal;text-indent:0;text-align:start;text-decoration:none;text-decoration-line:none;text-decoration-style:solid;text-decoration-color:#000000;letter-spacing:normal;word-spacing:normal;text-transform:none;writing-mode:lr-tb;direction:ltr;text-orientation:mixed;dominant-baseline:auto;baseline-shift:baseline;text-anchor:start;white-space:normal;shape-padding:0;clip-rule:nonzero;display:inline;overflow:visible;visibility:visible;isolation:auto;mix-blend-mode:normal;color-interpolation:sRGB;color-interpolation-filters:linearRGB;solid-color:#000000;solid-opacity:1;vector-effect:none;fill:#552200;fill-opacity:1;fill-rule:nonzero;stroke:none;stroke-width:2.02998;stroke-linecap:butt;stroke-linejoin:miter;stroke-miterlimit:4;stroke-dasharray:none;stroke-dashoffset:0;stroke-opacity:1;color-rendering:auto;image-rendering:auto;shape-rendering:auto;text-rendering:auto;enable-background:accumulate" />
  <path
     id="ellipse1774"
     style="fill:#9c0800;stroke-width:1.28243"
     d="m 65.377388,86.693466 a 5.8268285,4.9699421 0 0 1 -5.826828,4.969942 5.8268285,4.9699421 0 0 1 -5.826828,-4.969942 5.8268285,4.9699421 0 0 1 5.826828,-4.969942 5.8268285,4.9699421 0 0 1 5.826828,4.969942 z" />
  <path
     id="ellipse1776"
     style="stroke-width:0.945056"
     d="m 63.402243,86.395714 a 3.8559897,4.078454 0 0 1 -3.85599,4.078454 3.8559897,4.078454 0 0 1 -3.855989,-4.078454 3.8559897,4.078454 0 0 1 3.855989,-4.078454 3.8559897,4.078454 0 0 1 3.85599,4.078454 z" />
  <path
     id="ellipse1778"
     style="fill:#f2f2f2;stroke-width:0.550347"
     d="m 62.129822,86.759239 a 2.4926918,2.1395409 0 0 1 -2.492691,2.139541 2.4926918,2.1395409 0 0 1 -2.492692,-2.139541 2.4926918,2.1395409 0 0 1 2.492692,-2.139541 2.4926918,2.1395409 0 0 1 2.492691,2.139541 z" />
  <path
     sodipodi:nodetypes="cc"
     inkscape:connector-curvature="0"
     id="path855"
     d="M 83.093194,55.987817 C 80.051512,45.46278 66.397102,46.318418 67.590916,25.932978"
     style="fill:none;stroke:#000000;stroke-width:1.03967px;stroke-linecap:butt;stroke-linejoin:miter;stroke-opacity:1" />
  <path
     id="path857"
     style="stroke-width:40.9869;stroke-linecap:round"
     d="m 70.398691,25.868937 a 3.5738761,1.6709031 89.029424 0 1 -1.610126,3.601667 3.5738761,1.6709031 89.029424 0 1 -1.731201,-3.54506 3.5738761,1.6709031 89.029424 0 1 1.610126,-3.601667 3.5738761,1.6709031 89.029424 0 1 1.731201,3.54506 z" />
  <path
     style="fill:none;stroke:#000000;stroke-width:1.03967px;stroke-linecap:butt;stroke-linejoin:miter;stroke-opacity:1"
     d="M 86.959991,55.987817 C 90.001673,45.46278 103.82745,46.318418 102.63364,25.932978"
     id="path863"
     inkscape:connector-curvature="0"
     sodipodi:nodetypes="cc" />
  <path
     id="ellipse865"
     style="stroke-width:40.9869;stroke-linecap:round"
     d="m 99.82582,25.868954 a 1.6709031,3.5738761 0.97057619 0 0 1.61012,3.601667 1.6709031,3.5738761 0.97057619 0 0 1.73121,-3.54506 1.6709031,3.5738761 0.97057619 0 0 -1.61013,-3.601667 1.6709031,3.5738761 0.97057619 0 0 -1.7312,3.54506 z" />
  <path
     sodipodi:nodetypes="cccscsccccc"
     inkscape:connector-curvature="0"
     id="path843"
     d="m 87.090483,105.5708 c 1.444042,-3.28197 3.413214,-18.772825 4.200883,-24.81165 0.787695,-6.038799 -1.622659,-10.88513 -3.32919,-16.398812 -1.706646,-5.51372 1.4913,-5.26212 0.703631,-7.493857 -0.787668,-2.231763 -3.544548,-2.231763 -3.544548,-2.231763 0,0 -2.756867,0 -3.544536,2.231763 -0.787668,2.231737 2.067522,1.808753 0.360876,7.322473 -1.706607,5.513682 -3.774129,10.531397 -2.986434,16.570196 0.787669,6.038825 2.756841,21.52968 4.200883,24.81165 1.444081,3.28198 1.980804,3.62565 1.980804,3.62565 0,0 0.51355,-0.34384 1.957631,-3.62565 z"
     style="fill:#000000;fill-opacity:1;stroke:none;stroke-width:1.03967px;stroke-linecap:butt;stroke-linejoin:miter;stroke-opacity:1" />
  <path
     style="fill:#fc5516;fill-opacity:1;stroke:none;stroke-width:1.03967px;stroke-linecap:butt;stroke-linejoin:miter;stroke-opacity:1"
     d="m 87.095792,105.69197 c 1.444042,-3.28197 3.875582,-17.572733 4.200883,-24.811643 0.325302,-7.238872 -3.137197,-12.36131 -6.170107,14.398861 -2.798584,-26.751976 -6.334207,-22.11699 -6.170094,-14.398861 0.164113,7.718155 2.756841,21.529673 4.200884,24.811643 1.444081,3.28199 1.980803,3.62565 1.980803,3.62565 0,0 0.51355,-0.34383 1.957631,-3.62565 z"
     id="path1028"
     inkscape:connector-curvature="0"
     sodipodi:nodetypes="czczccc" />
</svg>
